<svg width="16" height="16" viewBox="0 0 16 16" fill="none" xmlns="http://www.w3.org/2000/svg">
<path opacity="0.5" d="M12.346 6.06818V6.52158C12.346 7.0657 12.5013 7.59765 12.7923 8.05039L13.5055 9.15984C14.1568 10.1732 13.6596 11.5506 12.5267 11.8711C9.56302 12.7094 6.43701 12.7094 3.47335 11.8711C2.34046 11.5506 1.8432 10.1732 2.49456 9.15983L3.20769 8.05039C3.49869 7.59765 3.65398 7.0657 3.65398 6.52158V6.06818C3.65398 3.57872 5.59977 1.56061 8.00001 1.56061C10.4003 1.56061 12.346 3.57872 12.346 6.06818Z" fill="white"/>
<path d="M8.48297 4.13637C8.48297 3.86964 8.26674 3.65341 8.00001 3.65341C7.73329 3.65341 7.51706 3.86964 7.51706 4.13637V6.71212C7.51706 6.97885 7.73329 7.19508 8.00001 7.19508C8.26674 7.19508 8.48297 6.97885 8.48297 6.71212V4.13637Z" fill="white"/>
<path d="M4.93689 12.2145C5.35605 13.5057 6.56896 14.4392 7.99988 14.4392C9.43081 14.4392 10.6437 13.5057 11.0629 12.2145C9.03741 12.5946 6.96236 12.5946 4.93689 12.2145Z" fill="white"/>
</svg>
