<svg width="393" height="913" viewBox="0 0 393 913" fill="none" xmlns="http://www.w3.org/2000/svg">
<g clip-path="url(#clip0_1_230)">
<rect width="393" height="913" rx="24" fill="#06030E"/>
<path d="M413.708 38.3307C413.708 141.989 329.873 226.019 226.46 226.019C123.047 226.019 39.2121 141.989 39.2121 38.3307C39.2121 -65.3277 123.047 -149.358 226.46 -149.358C329.873 -149.358 413.708 -65.3277 413.708 38.3307Z" stroke="url(#paint0_linear_1_230)" stroke-opacity="0.17" stroke-width="0.881166"/>
<path d="M616.375 -89.4384C616.375 44.3924 508.081 152.882 374.495 152.882C240.91 152.882 132.615 44.3924 132.615 -89.4384C132.615 -223.269 240.91 -331.759 374.495 -331.759C508.081 -331.759 616.375 -223.269 616.375 -89.4384Z" stroke="url(#paint1_linear_1_230)" stroke-opacity="0.07" stroke-width="0.881166"/>
<g filter="url(#filter0_f_1_230)">
<path d="M39.3912 835.784C-0.613556 813.405 -41.0057 771.048 -57.3002 769.109C-86.4743 765.638 -82.2079 845.94 -51.3542 874.636C-22.4024 901.564 178.563 929.131 129.248 874.636C103.011 845.644 73.4373 854.831 39.3912 835.784Z" fill="#0014FF"/>
</g>
<g filter="url(#filter1_f_1_230)">
<path d="M19.2675 853.547C-13.8206 834.598 -47.229 798.734 -60.7062 797.092C-84.8362 794.153 -81.3075 862.146 -55.7883 886.444C-31.8421 909.244 134.377 932.585 93.5879 886.444C71.8874 861.896 47.4271 869.674 19.2675 853.547Z" fill="#8020EF"/>
</g>
<g filter="url(#filter2_f_1_230)">
<path d="M7.87166 907.765C12.0747 904.08 -23.7766 870.382 -45.2069 856.624C-66.6371 842.866 -60.4278 868.478 -41.6774 883.899C-26.0709 896.734 3.66858 911.449 7.87166 907.765Z" fill="#2F2975"/>
<path d="M7.87166 907.765C12.0747 904.08 -23.7766 870.382 -45.2069 856.624C-66.6371 842.866 -60.4278 868.478 -41.6774 883.899C-26.0709 896.734 3.66858 911.449 7.87166 907.765Z" stroke="#5C65EA" stroke-width="32.8607"/>
</g>
<g filter="url(#filter3_f_1_230)">
<path d="M190.753 -24.4468C226.828 -41.1248 265.54 -33.4105 306.686 -12.9177C357.051 12.1668 476.456 85.0338 466.963 137.958C460.428 174.393 412.129 162.718 380.494 142.96C292.005 87.6931 202.723 94.8818 169.702 56.7589C146.272 29.7093 155.888 -8.32787 190.753 -24.4468Z" fill="url(#paint2_linear_1_230)"/>
</g>
<g filter="url(#filter4_f_1_230)">
<circle cx="40.0928" cy="-12.7769" r="140.546" fill="#477CF7" fill-opacity="0.1"/>
</g>
<g filter="url(#filter5_f_1_230)">
<circle cx="0.44091" cy="760.006" r="91.2007" fill="white" fill-opacity="0.2"/>
</g>
<g opacity="0.7">
<g filter="url(#filter6_f_1_230)">
<circle cx="214.564" cy="535.308" r="36.5684" fill="#EB9A41"/>
</g>
<g filter="url(#filter7_f_1_230)">
<circle cx="272.721" cy="478.914" r="36.5684" fill="#3A62F2"/>
</g>
<g filter="url(#filter8_f_1_230)">
<circle cx="283.295" cy="562.624" r="36.5684" fill="#F62866"/>
</g>
</g>
</g>
<defs>
<filter id="filter0_f_1_230" x="-282.38" y="563.62" width="624.759" height="547.759" filterUnits="userSpaceOnUse" color-interpolation-filters="sRGB">
<feFlood flood-opacity="0" result="BackgroundImageFix"/>
<feBlend mode="normal" in="SourceGraphic" in2="BackgroundImageFix" result="shape"/>
<feGaussianBlur stdDeviation="102.69" result="effect1_foregroundBlur_1_230"/>
</filter>
<filter id="filter1_f_1_230" x="-323.456" y="550.544" width="669.911" height="608.911" filterUnits="userSpaceOnUse" color-interpolation-filters="sRGB">
<feFlood flood-opacity="0" result="BackgroundImageFix"/>
<feBlend mode="normal" in="SourceGraphic" in2="BackgroundImageFix" result="shape"/>
<feGaussianBlur stdDeviation="123.228" result="effect1_foregroundBlur_1_230"/>
</filter>
<filter id="filter2_f_1_230" x="-198.386" y="713.038" width="346.251" height="334.964" filterUnits="userSpaceOnUse" color-interpolation-filters="sRGB">
<feFlood flood-opacity="0" result="BackgroundImageFix"/>
<feBlend mode="normal" in="SourceGraphic" in2="BackgroundImageFix" result="shape"/>
<feGaussianBlur stdDeviation="61.6139" result="effect1_foregroundBlur_1_230"/>
</filter>
<filter id="filter3_f_1_230" x="-28.4057" y="-218.809" width="681.181" height="565.692" filterUnits="userSpaceOnUse" color-interpolation-filters="sRGB">
<feFlood flood-opacity="0" result="BackgroundImageFix"/>
<feBlend mode="normal" in="SourceGraphic" in2="BackgroundImageFix" result="shape"/>
<feGaussianBlur stdDeviation="92.6388" result="effect1_foregroundBlur_1_230"/>
</filter>
<filter id="filter4_f_1_230" x="-195.619" y="-248.489" width="471.424" height="471.424" filterUnits="userSpaceOnUse" color-interpolation-filters="sRGB">
<feFlood flood-opacity="0" result="BackgroundImageFix"/>
<feBlend mode="normal" in="SourceGraphic" in2="BackgroundImageFix" result="shape"/>
<feGaussianBlur stdDeviation="47.583" result="effect1_foregroundBlur_1_230"/>
</filter>
<filter id="filter5_f_1_230" x="-227.34" y="532.224" width="455.563" height="455.563" filterUnits="userSpaceOnUse" color-interpolation-filters="sRGB">
<feFlood flood-opacity="0" result="BackgroundImageFix"/>
<feBlend mode="normal" in="SourceGraphic" in2="BackgroundImageFix" result="shape"/>
<feGaussianBlur stdDeviation="68.2904" result="effect1_foregroundBlur_1_230"/>
</filter>
<filter id="filter6_f_1_230" x="61.6817" y="382.426" width="305.765" height="305.765" filterUnits="userSpaceOnUse" color-interpolation-filters="sRGB">
<feFlood flood-opacity="0" result="BackgroundImageFix"/>
<feBlend mode="normal" in="SourceGraphic" in2="BackgroundImageFix" result="shape"/>
<feGaussianBlur stdDeviation="58.157" result="effect1_foregroundBlur_1_230"/>
</filter>
<filter id="filter7_f_1_230" x="119.839" y="326.031" width="305.765" height="305.765" filterUnits="userSpaceOnUse" color-interpolation-filters="sRGB">
<feFlood flood-opacity="0" result="BackgroundImageFix"/>
<feBlend mode="normal" in="SourceGraphic" in2="BackgroundImageFix" result="shape"/>
<feGaussianBlur stdDeviation="58.157" result="effect1_foregroundBlur_1_230"/>
</filter>
<filter id="filter8_f_1_230" x="130.413" y="409.742" width="305.765" height="305.765" filterUnits="userSpaceOnUse" color-interpolation-filters="sRGB">
<feFlood flood-opacity="0" result="BackgroundImageFix"/>
<feBlend mode="normal" in="SourceGraphic" in2="BackgroundImageFix" result="shape"/>
<feGaussianBlur stdDeviation="58.157" result="effect1_foregroundBlur_1_230"/>
</filter>
<linearGradient id="paint0_linear_1_230" x1="59.0383" y1="180.639" x2="512.839" y2="123.363" gradientUnits="userSpaceOnUse">
<stop stop-color="#60B3FE"/>
<stop offset="1" stop-color="#60B3FE" stop-opacity="0"/>
</linearGradient>
<linearGradient id="paint1_linear_1_230" x1="158.341" y1="94.196" x2="744.224" y2="20.2105" gradientUnits="userSpaceOnUse">
<stop stop-color="#60B3FE"/>
<stop offset="1" stop-color="#60B3FE" stop-opacity="0"/>
</linearGradient>
<linearGradient id="paint2_linear_1_230" x1="194.466" y1="5.41123" x2="368.852" y2="147.525" gradientUnits="userSpaceOnUse">
<stop offset="0.422952" stop-color="#0014FF"/>
<stop offset="1" stop-color="#FF2CDF"/>
</linearGradient>
<clipPath id="clip0_1_230">
<rect width="393" height="913" rx="24" fill="white"/>
</clipPath>
</defs>
</svg>
