<svg width="16" height="16" viewBox="0 0 16 16" fill="none" xmlns="http://www.w3.org/2000/svg">
<path fill-rule="evenodd" clip-rule="evenodd" d="M7.67797 2.0423C4.56547 2.0423 2.0423 4.56547 2.0423 7.67797C2.0423 10.7905 4.56547 13.3137 7.67797 13.3137C10.7905 13.3137 13.3137 10.7905 13.3137 7.67797C13.3137 4.56547 10.7905 2.0423 7.67797 2.0423ZM1.07618 7.67797C1.07618 4.0319 4.0319 1.07618 7.67797 1.07618C11.324 1.07618 14.2798 4.0319 14.2798 7.67797C14.2798 11.324 11.324 14.2798 7.67797 14.2798C4.0319 14.2798 1.07618 11.324 1.07618 7.67797ZM12.8111 12.8111C12.9997 12.6224 13.3056 12.6224 13.4942 12.8111L14.7824 14.0992C14.971 14.2879 14.971 14.5937 14.7824 14.7824C14.5937 14.971 14.2879 14.971 14.0992 14.7824L12.8111 13.4942C12.6224 13.3056 12.6224 12.9997 12.8111 12.8111Z" fill="white"/>
</svg>
